<?xml version="1.0" encoding="iso-8859-1"?>
<!-- Generator: Adobe Illustrator 19.1.0, SVG Export Plug-In . SVG Version: 6.00 Build 0)  -->
<svg version="1.1" id="Capa_1" xmlns="http://www.w3.org/2000/svg" xmlns:xlink="http://www.w3.org/1999/xlink" x="0px" y="0px"
	 viewBox="0 0 559.464 559.464" style="enable-background:new 0 0 559.464 559.464;" xml:space="preserve">
<g>
	<g>
		<g id="group-8svg">
			<path id="path-1_48_" d="M169.265,429.701c-7.434,0-13.468-6.025-13.468-13.468c0-61.227,50.56-112.945,110.404-112.945h48.477
				c60.877,0,110.404,50.102,110.404,111.688c0,7.434-6.034,13.468-13.468,13.468c-7.443,0-13.468-6.034-13.468-13.468
				c0-46.735-37.442-84.751-83.467-84.751h-48.477c-45.244,0-83.467,39.39-83.467,86.008
				C182.733,423.676,176.699,429.701,169.265,429.701z"/>
			<path id="path-2_48_" d="M227.196,203.434c-2.227,0-4.48-0.557-6.546-1.706l-20.741-11.547
				c-10.164-1.877-20.876,0.871-28.337,8.323c-5.262,5.262-13.783,5.262-19.044,0s-5.262-13.792,0-19.053
				c3.601-3.592,7.596-6.608,11.879-9.033l-8.907-4.965c-6.492-3.618-8.835-11.816-5.217-18.317
				c3.618-6.51,11.843-8.853,18.317-5.226l41.518,23.121c9.796,2.685,19.026,7.83,26.604,15.408c4.75,4.75,5.28,12.274,1.23,17.634
				C235.331,201.557,231.3,203.434,227.196,203.434z"/>
			<path id="path-3_48_" d="M345.259,203.434c-4.103,0-8.135-1.877-10.757-5.36c-4.049-5.36-3.529-12.885,1.221-17.634
				c7.569-7.578,16.817-12.714,26.604-15.408l41.518-23.121c6.474-3.618,14.698-1.293,18.317,5.226
				c3.627,6.501,1.284,14.698-5.217,18.317l-8.907,4.965c4.292,2.424,8.288,5.441,11.879,9.033c5.262,5.262,5.262,13.792,0,19.053
				s-13.783,5.262-19.044,0c-7.443-7.452-18.155-10.218-28.337-8.323l-20.741,11.547
				C349.74,202.877,347.486,203.434,345.259,203.434z"/>
			<path id="path-4_48_" d="M279.732,559.464c-154.212,0-279.664-125.488-279.664-279.727C0.067,125.488,125.511,0,279.732,0
				c154.203,0,279.664,125.488,279.664,279.736C559.387,433.975,433.926,559.464,279.732,559.464z M279.732,26.946
				c-139.352,0-252.728,113.403-252.728,252.791S140.38,532.527,279.732,532.527c139.361,0,252.728-113.403,252.728-252.791
				S419.084,26.946,279.732,26.946z"/>
		</g>
	</g>
</g>
<g>
</g>
<g>
</g>
<g>
</g>
<g>
</g>
<g>
</g>
<g>
</g>
<g>
</g>
<g>
</g>
<g>
</g>
<g>
</g>
<g>
</g>
<g>
</g>
<g>
</g>
<g>
</g>
<g>
</g>
</svg>
