<?xml version="1.0" encoding="iso-8859-1"?>
<!-- Generator: Adobe Illustrator 19.1.0, SVG Export Plug-In . SVG Version: 6.00 Build 0)  -->
<svg version="1.1" id="Capa_1" xmlns="http://www.w3.org/2000/svg" xmlns:xlink="http://www.w3.org/1999/xlink" x="0px" y="0px"
	 viewBox="0 0 567.41 567.41" style="enable-background:new 0 0 567.41 567.41;" xml:space="preserve">
<g>
	<g>
		<g id="group-37svg">
			<path id="path-1_29_" d="M308.702,456.404h-45.397c-58.461,0-104.245-44.93-104.245-102.278c0-7.443,6.034-13.468,13.468-13.468
				c7.434,0,13.468,6.025,13.468,13.468c0,42.246,33.958,75.333,77.308,75.333h45.397c44.077,0,77.308-31.525,77.308-73.339
				c0-7.434,6.034-13.468,13.468-13.468c7.434,0,13.468,6.034,13.468,13.468C412.947,412.354,367.163,456.404,308.702,456.404z"/>
			<path id="path-2_29_" d="M402.657,289.846c-0.287,0.009-0.646-0.009-0.97-0.027c-0.287,0.018-0.584,0.027-0.871,0.027
				c-3.924,0-14.33,0-43.916-36.732c-13.405-16.656-29.388-39.776-29.388-55.364c0-28.409,23.112-51.521,51.512-51.521
				c9.428,0,16.862,5.45,22.663,10.649c5.809-5.199,13.244-10.649,22.672-10.649c28.4,0,51.512,23.112,51.512,51.521
				c0,15.587-15.982,38.708-29.397,55.364C417.131,289.55,406.652,289.846,402.657,289.846z M378.468,173.112
				c-13.001,0.054-24.018,11.089-24.018,24.638c0.413,11.206,33.114,53.227,47.238,64.001
				c14.133-10.784,46.834-52.805,47.247-64.028c0-13.522-11.017-24.557-24.575-24.557c-1.23,0.467-5.441,4.436-7.695,6.564
				c-2.433,2.299-4.768,4.445-6.932,6.061c-4.759,3.547-11.295,3.565-16.072,0c-2.173-1.616-4.516-3.771-6.968-6.07
				C384.439,177.593,380.255,173.633,378.468,173.112z"/>
			<path id="path-3_29_" d="M186.365,289.846c-0.314,0.009-0.637-0.009-0.961-0.027c-0.296,0.018-0.593,0.027-0.88,0.027
				c-3.924,0-14.33,0-43.916-36.732c-13.405-16.656-29.388-39.776-29.388-55.364c0-28.409,23.112-51.521,51.512-51.521
				c9.428,0,16.862,5.45,22.672,10.649c5.8-5.199,13.235-10.649,22.663-10.649c28.4,0,51.512,23.112,51.512,51.521
				c0,15.587-15.982,38.708-29.397,55.364C200.839,289.55,190.361,289.846,186.365,289.846z M162.185,173.112
				c-13.01,0.054-24.027,11.089-24.027,24.638c0.413,11.206,33.114,53.227,47.247,64.001c14.124-10.784,46.825-52.805,47.238-64.028
				c0-13.522-11.017-24.557-24.575-24.557c-1.23,0.467-5.441,4.436-7.695,6.564c-2.433,2.299-4.768,4.445-6.932,6.061
				c-4.75,3.547-11.286,3.565-16.072,0c-2.173-1.616-4.516-3.771-6.959-6.07C168.156,177.593,163.963,173.633,162.185,173.112z"/>
			<path id="path-4_29_" d="M283.705,567.41c-156.403,0-283.642-127.266-283.642-283.705S127.302,0,283.705,0
				s283.642,127.266,283.642,283.705S440.108,567.41,283.705,567.41z M283.705,26.937c-141.552,0-256.705,115.19-256.705,256.768
				s115.154,256.759,256.705,256.759c141.543,0,256.705-115.181,256.705-256.759S425.248,26.937,283.705,26.937z"/>
		</g>
	</g>
</g>
<g>
</g>
<g>
</g>
<g>
</g>
<g>
</g>
<g>
</g>
<g>
</g>
<g>
</g>
<g>
</g>
<g>
</g>
<g>
</g>
<g>
</g>
<g>
</g>
<g>
</g>
<g>
</g>
<g>
</g>
</svg>
